# xmcd
#
# Track frame offsets:
#	150
#	18652
#	30690
#	48455
#	62257
#	79437
#	96257
#	114652
#	131042
#	147840
#	162467
#	176147
#	193535
#	210890
#	230340
#	249062
#	270405
#	286822
#	307430
#	325345
#
# Disc length: 4587 seconds
#
# Revision: 5
# Processed by: cddbd v1.4PL0 Copyright (c) Steve Scherf et al.
# Submitted via: MusicWizard 6.0.0
#
DISCID=1f11e914
DTITLE=Various Artist - 40 Jahre Radio Hits aus Luxemburg Teil 5
DYEAR=1900
DGENRE=
TTITLE0=Howard Carpendale - Ti amo
TTITLE1=Tony Holiday - Tanze Samba mit mir
TTITLE2=Andrea Jürgens - Und dabei liebe ich euch beide
TTITLE3=Dschingis Khan - Dschingis Khan
TTITLE4=Karel Gott - Babicka
TTITLE5=Milva - Zusammenleben
TTITLE6=Roland Kaiser - Santa Maria
TTITLE7=Spider Murphy Gang - Schickeria
TTITLE8=Hubert Kah - Rosemarie
TTITLE9=Andy Borg - Arrivederci Claire
TTITLE10=Geier Sturzflug - Bruttosozialprodukt
TTITLE11=Nino De Angelo - Jenseits von Eden
TTITLE12=G. G. Anderson - Santa Lucia versunken im Meer
TTITLE13=Erste Allgemeine Verunsicherung - Fata Morgana
TTITLE14=Udo Jürgens - Café Grössenwahn
TTITLE15=Nicki - Koana war so wie du
TTITLE16=Matthias Reim - Verdammt ich lieb´ dich
TTITLE17=Viktor Lazlo and Stefan Waggershausen - Das erste Mal tat´s noch weh
TTITLE18=Dieter Krebs and Gundula - Ich bin der Martin, ne . . .?!
TTITLE19=Die Fantastischen Vier - Die da ?!
EXTD=
EXTT0=
EXTT1=
EXTT2=
EXTT3=
EXTT4=
EXTT5=
EXTT6=
EXTT7=
EXTT8=
EXTT9=
EXTT10=
EXTT11=
EXTT12=
EXTT13=
EXTT14=
EXTT15=
EXTT16=
EXTT17=
EXTT18=
EXTT19=
PLAYORDER=
